<mxfile host="65bd71144e">
    <diagram id="_ox3ouP-gt7AIixgYozw" name="PÃ¡gina-1">
        <mxGraphModel dx="1026" dy="779" grid="1" gridSize="10" guides="1" tooltips="1" connect="1" arrows="1" fold="1" page="1" pageScale="1" pageWidth="827" pageHeight="1169" math="0" shadow="0">
            <root>
                <mxCell id="0"/>
                <mxCell id="1" parent="0"/>
                <mxCell id="2" value="Browser" style="shape=umlLifeline;perimeter=lifelinePerimeter;whiteSpace=wrap;html=1;container=1;collapsible=0;recursiveResize=0;outlineConnect=0;" parent="1" vertex="1">
                    <mxGeometry x="90" y="50" width="100" height="560" as="geometry"/>
                </mxCell>
                <mxCell id="9" value="HTTP GET:&amp;nbsp;https://studies.cs.helsinki.fi/exampleapp/notes" style="html=1;verticalAlign=bottom;endArrow=block;" parent="2" edge="1">
                    <mxGeometry width="80" relative="1" as="geometry">
                        <mxPoint x="50" y="180" as="sourcePoint"/>
                        <mxPoint x="499.5" y="180" as="targetPoint"/>
                    </mxGeometry>
                </mxCell>
                <mxCell id="10" value="HTML code" style="html=1;verticalAlign=bottom;endArrow=open;dashed=1;endSize=8;" parent="2" edge="1">
                    <mxGeometry relative="1" as="geometry">
                        <mxPoint x="499.57000000000005" y="230" as="sourcePoint"/>
                        <mxPoint x="49.99857142857144" y="230" as="targetPoint"/>
                    </mxGeometry>
                </mxCell>
                <mxCell id="4" value="Server" style="shape=umlLifeline;perimeter=lifelinePerimeter;whiteSpace=wrap;html=1;container=1;collapsible=0;recursiveResize=0;outlineConnect=0;" parent="1" vertex="1">
                    <mxGeometry x="540" y="50" width="100" height="560" as="geometry"/>
                </mxCell>
                <mxCell id="5" value="HTTP POST:&amp;nbsp;https://studies.cs.helsinki.fi/exampleapp/new_note" style="html=1;verticalAlign=bottom;endArrow=block;" parent="1" target="4" edge="1">
                    <mxGeometry width="80" relative="1" as="geometry">
                        <mxPoint x="140" y="130" as="sourcePoint"/>
                        <mxPoint x="220" y="130" as="targetPoint"/>
                    </mxGeometry>
                </mxCell>
                <mxCell id="6" value="Redirect HTTP 302: https://studies.cs.helsinki.fi/exampleapp/notes&amp;nbsp;" style="html=1;verticalAlign=bottom;endArrow=open;dashed=1;endSize=8;" parent="1" edge="1">
                    <mxGeometry relative="1" as="geometry">
                        <mxPoint x="589.5" y="180" as="sourcePoint"/>
                        <mxPoint x="139.92857142857144" y="180" as="targetPoint"/>
                    </mxGeometry>
                </mxCell>
                <mxCell id="11" value="HTTP GET:&amp;nbsp;https://studies.cs.helsinki.fi/exampleapp/main.css" style="html=1;verticalAlign=bottom;endArrow=block;" parent="1" edge="1">
                    <mxGeometry width="80" relative="1" as="geometry">
                        <mxPoint x="140" y="330" as="sourcePoint"/>
                        <mxPoint x="589.5" y="330" as="targetPoint"/>
                    </mxGeometry>
                </mxCell>
                <mxCell id="12" value="main.css" style="html=1;verticalAlign=bottom;endArrow=open;dashed=1;endSize=8;" parent="1" edge="1">
                    <mxGeometry relative="1" as="geometry">
                        <mxPoint x="589.5700000000002" y="380" as="sourcePoint"/>
                        <mxPoint x="139.9985714285715" y="380" as="targetPoint"/>
                    </mxGeometry>
                </mxCell>
                <mxCell id="13" value="HTTP GET:&amp;nbsp;https://studies.cs.helsinki.fi/exampleapp/main.js" style="html=1;verticalAlign=bottom;endArrow=block;" parent="1" edge="1">
                    <mxGeometry width="80" relative="1" as="geometry">
                        <mxPoint x="140" y="430" as="sourcePoint"/>
                        <mxPoint x="589.5" y="430" as="targetPoint"/>
                    </mxGeometry>
                </mxCell>
                <mxCell id="14" value="main.js" style="html=1;verticalAlign=bottom;endArrow=open;dashed=1;endSize=8;" parent="1" edge="1">
                    <mxGeometry relative="1" as="geometry">
                        <mxPoint x="589.5700000000002" y="480" as="sourcePoint"/>
                        <mxPoint x="139.9985714285715" y="480" as="targetPoint"/>
                    </mxGeometry>
                </mxCell>
                <mxCell id="16" value="HTTP GET:&amp;nbsp;https://studies.cs.helsinki.fi/exampleapp/data.json" style="html=1;verticalAlign=bottom;endArrow=block;" parent="1" edge="1">
                    <mxGeometry width="80" relative="1" as="geometry">
                        <mxPoint x="140" y="530" as="sourcePoint"/>
                        <mxPoint x="589.5" y="530" as="targetPoint"/>
                    </mxGeometry>
                </mxCell>
                <mxCell id="18" value="data.json" style="html=1;verticalAlign=bottom;endArrow=open;dashed=1;endSize=8;" parent="1" edge="1">
                    <mxGeometry relative="1" as="geometry">
                        <mxPoint x="589.5700000000002" y="580" as="sourcePoint"/>
                        <mxPoint x="139.9985714285715" y="580" as="targetPoint"/>
                    </mxGeometry>
                </mxCell>
                <mxCell id="19" value="&lt;b&gt;sd &lt;/b&gt;new note" style="shape=umlFrame;whiteSpace=wrap;html=1;width=90;height=20;align=left;" vertex="1" parent="1">
                    <mxGeometry x="50" y="10" width="630" height="650" as="geometry"/>
                </mxCell>
            </root>
        </mxGraphModel>
    </diagram>
</mxfile>